<svg width="155" height="33" viewBox="0 0 155 33" fill="none" xmlns="http://www.w3.org/2000/svg">
<g clip-path="url(#clip0_18_2051)">
<path d="M54.7105 19.0077L53.7885 21.617H53.7117C53.558 21.0286 53.2763 20.1333 52.8153 19.0589L47.8725 6.65188H43.0321V26.4263H46.2334V14.224C46.2334 13.4565 46.2334 12.5868 46.2078 11.5123C46.1822 10.9751 46.131 10.5658 46.1054 10.2589H46.1822C46.3359 11.0263 46.5151 11.5891 46.6432 11.9472L52.5848 26.3751H54.8385L60.729 11.8193C60.857 11.4868 60.9851 10.8216 61.1131 10.2589H61.19C61.1131 11.717 61.0619 13.0216 61.0363 13.8147V26.3496H64.4425V6.60072H59.7814L54.7105 19.0077ZM67.6694 12.1775H70.9988V26.3496H67.6694V12.1775ZM69.3597 6.19142C68.7963 6.19142 68.3353 6.39607 67.9511 6.75421C67.567 7.11235 67.3621 7.57281 67.3621 8.1356C67.3621 8.67281 67.567 9.13328 67.9511 9.49142C68.3353 9.84955 68.7963 10.0286 69.3597 10.0286C69.9231 10.0286 70.4097 9.82397 70.7683 9.49142C71.1524 9.13328 71.3573 8.67281 71.3573 8.1356C71.3573 7.59839 71.1524 7.13793 70.7683 6.75421C70.4354 6.39607 69.9487 6.19142 69.3597 6.19142ZM82.8052 12.0496C82.1906 11.9216 81.5503 11.8449 80.9357 11.8449C79.4246 11.8449 78.0417 12.1775 76.8892 12.8426C75.7367 13.5077 74.8147 14.4286 74.2257 15.5798C73.6111 16.7565 73.3037 18.1123 73.3037 19.6728C73.3037 21.0286 73.6111 22.2309 74.2001 23.3309C74.7891 24.4054 75.6087 25.2751 76.7099 25.8635C77.76 26.4519 78.9893 26.7589 80.3722 26.7589C81.9601 26.7589 83.3174 26.4263 84.3931 25.8123L84.4187 25.7868V22.717L84.2906 22.8193C83.804 23.1775 83.2406 23.4844 82.6772 23.6635C82.0881 23.8682 81.5503 23.9705 81.0893 23.9705C79.7576 23.9705 78.7075 23.5868 77.9648 22.7426C77.1965 21.924 76.8124 20.7984 76.8124 19.3914C76.8124 17.9333 77.1965 16.7821 77.9905 15.9379C78.7844 15.0937 79.8344 14.6589 81.1149 14.6589C82.1906 14.6589 83.2918 15.017 84.2906 15.7333L84.4187 15.8356V12.5868L84.3931 12.5612C83.9577 12.3821 83.4711 12.1775 82.8052 12.0496ZM93.7921 11.9472C92.9726 11.9472 92.2043 12.203 91.5384 12.7403C90.975 13.2007 90.5908 13.8658 90.2579 14.6589H90.2323V12.1775H86.9029V26.3496H90.2323V19.11C90.2323 17.8821 90.4884 16.8589 91.0518 16.117C91.6152 15.3496 92.3323 14.9658 93.2031 14.9658C93.5104 14.9658 93.8177 15.0426 94.2019 15.0937C94.5605 15.1961 94.8166 15.2984 94.9958 15.4263L95.1239 15.5286V12.203L95.0471 12.1775C94.8166 12.024 94.3556 11.9472 93.7921 11.9472ZM102.858 11.8705C100.528 11.8705 98.6581 12.5612 97.352 13.917C96.0203 15.2728 95.38 17.1403 95.38 19.4937C95.38 21.6937 96.0459 23.4844 97.3264 24.7891C98.6069 26.0682 100.348 26.7333 102.525 26.7333C104.805 26.7333 106.623 26.0426 107.929 24.6612C109.261 23.2798 109.901 21.4379 109.901 19.1612C109.901 16.91 109.286 15.1193 108.032 13.8147C106.828 12.51 105.061 11.8705 102.858 11.8705ZM105.522 22.7682C104.907 23.5612 103.934 23.9449 102.73 23.9449C101.527 23.9449 100.553 23.5612 99.8618 22.717C99.1703 21.924 98.8374 20.7728 98.8374 19.3147C98.8374 17.8054 99.196 16.6542 99.8618 15.8356C100.553 15.017 101.501 14.6077 102.705 14.6077C103.883 14.6077 104.805 14.9914 105.471 15.7844C106.136 16.5775 106.495 17.7286 106.495 19.2379C106.444 20.7728 106.162 21.9751 105.522 22.7682ZM117.328 18.0612C116.278 17.6263 115.612 17.2937 115.305 17.0123C115.049 16.7565 114.921 16.3984 114.921 15.9379C114.921 15.5542 115.074 15.1705 115.459 14.9147C115.843 14.6589 116.278 14.5309 116.918 14.5309C117.482 14.5309 118.071 14.6333 118.634 14.7868C119.198 14.9403 119.71 15.1705 120.12 15.4775L120.248 15.5798V12.4589L120.171 12.4333C119.787 12.2798 119.275 12.1263 118.66 11.9984C118.045 11.8961 117.482 11.8449 117.021 11.8449C115.433 11.8449 114.127 12.2286 113.102 13.0728C112.078 13.8658 111.591 14.9403 111.591 16.1937C111.591 16.8589 111.694 17.4472 111.924 17.9333C112.155 18.4193 112.488 18.8798 112.949 19.2635C113.41 19.6216 114.076 20.031 114.998 20.4147C115.766 20.7472 116.355 21.003 116.714 21.2077C117.072 21.4123 117.303 21.6426 117.482 21.8216C117.61 22.0263 117.687 22.2821 117.687 22.6147C117.687 23.5612 116.97 24.0216 115.51 24.0216C114.946 24.0216 114.357 23.9193 113.666 23.6891C112.974 23.4589 112.334 23.1263 111.796 22.7426L111.668 22.6403V25.8891L111.745 25.9147C112.232 26.1449 112.821 26.2984 113.538 26.4775C114.255 26.6054 114.895 26.7077 115.459 26.7077C117.175 26.7077 118.583 26.324 119.582 25.4798C120.606 24.6612 121.144 23.6123 121.144 22.2565C121.144 21.31 120.888 20.4658 120.325 19.8263C119.582 19.2123 118.66 18.5728 117.328 18.0612ZM129.929 11.8705C127.598 11.8705 125.728 12.5612 124.422 13.917C123.116 15.2728 122.45 17.1403 122.45 19.4937C122.45 21.6937 123.116 23.4844 124.397 24.7891C125.677 26.0682 127.419 26.7333 129.596 26.7333C131.875 26.7333 133.693 26.0426 134.999 24.6612C136.331 23.2798 136.971 21.4379 136.971 19.1612C136.971 16.91 136.357 15.1193 135.102 13.8147C133.898 12.51 132.131 11.8705 129.929 11.8705ZM132.566 22.7682C131.952 23.5612 130.979 23.9449 129.775 23.9449C128.546 23.9449 127.598 23.5612 126.907 22.717C126.215 21.924 125.882 20.7728 125.882 19.3147C125.882 17.8054 126.241 16.6542 126.907 15.8356C127.598 15.017 128.546 14.6077 129.749 14.6077C130.902 14.6077 131.849 14.9914 132.515 15.7844C133.181 16.5775 133.54 17.7286 133.54 19.2379C133.54 20.7728 133.207 21.9751 132.566 22.7682ZM154.771 14.9147V12.1775H151.416V7.98211L151.313 8.00769L148.138 8.95421L148.061 8.97979V12.1775H143.041V10.3868C143.041 9.56816 143.246 8.92862 143.605 8.51932C143.963 8.11002 144.501 7.90537 145.167 7.90537C145.628 7.90537 146.114 8.00769 146.652 8.23793L146.78 8.31467V5.42397L146.703 5.39839C146.242 5.2449 145.628 5.14258 144.834 5.14258C143.835 5.14258 142.964 5.37281 142.17 5.75653C141.376 6.19142 140.787 6.77979 140.352 7.57281C139.917 8.34025 139.686 9.21002 139.686 10.2077V12.1775H137.356V14.8891H139.686V26.3496H143.041V14.9147H148.061V22.2054C148.061 25.1984 149.469 26.7077 152.287 26.7077C152.748 26.7077 153.234 26.631 153.695 26.5542C154.182 26.4519 154.54 26.324 154.745 26.2216L154.771 26.1961V23.4589L154.643 23.5612C154.438 23.6891 154.259 23.7914 153.951 23.8682C153.695 23.9449 153.465 23.9705 153.285 23.9705C152.619 23.9705 152.159 23.817 151.826 23.4333C151.518 23.0751 151.365 22.4868 151.365 21.617V14.9147H154.771Z" fill="#2F3133"/>
<path d="M0.109253 0H15.8085V15.6814H0.109253V0Z" fill="#2F3133"/>
<path d="M17.4481 0H33.1474V15.6814H17.4481V0Z" fill="#2F3133"/>
<path d="M0.109253 17.3184H15.8085V32.9998H0.109253V17.3184Z" fill="#2F3133"/>
<path d="M17.4481 17.3184H33.1474V32.9998H17.4481V17.3184Z" fill="#2F3133"/>
</g>
<defs>
<clipPath id="clip0_18_2051">
<rect width="154.688" height="33" fill="white" transform="translate(0.109253)"/>
</clipPath>
</defs>
</svg>
