<svg width="142" height="35" viewBox="0 0 142 35" fill="none" xmlns="http://www.w3.org/2000/svg">
<g clip-path="url(#clip0_18_2040)">
<path d="M101.191 13.61C99.1215 13.61 97.6124 14.3445 96.8795 15.6841L96.4914 16.4186V13.9557H93.0853V28.8631H96.6639V20.005C96.6639 17.8878 97.828 16.6779 99.8113 16.6779C101.708 16.6779 102.829 17.8445 102.829 19.9186V28.8631H106.408V19.2705C106.408 15.7273 104.468 13.61 101.191 13.61ZM83.8587 13.61C79.6334 13.61 77.0465 16.2458 77.0465 20.4803V22.5544C77.0465 26.6594 79.6765 29.1655 83.9449 29.1655C86.7905 29.1655 88.7738 28.1285 90.0242 25.968L87.8253 24.6717C86.8768 25.9248 85.4108 26.6594 83.9449 26.6594C81.7892 26.6594 80.4957 25.3199 80.4957 23.0729V22.468H90.4553V20.005C90.4553 16.1594 87.8684 13.61 83.8587 13.61ZM87.2217 20.1779H80.4957V19.8322C80.4957 17.3692 81.7029 16.0297 83.8587 16.0297C85.9713 16.0297 87.2217 17.3692 87.2217 19.6162V20.1779ZM141.892 11.5359V8.68405H129.518V11.5359H133.872V26.0112H129.518V28.8631H141.892V26.0112H137.537V11.5359H141.892ZM48.1163 8.25195C42.5975 8.25195 39.1483 11.7087 39.1483 17.2396V20.2643C39.1483 25.8384 42.5975 29.252 48.1163 29.252C53.635 29.252 57.0842 25.7952 57.0842 20.2643V17.2396C57.0842 11.7087 53.635 8.25195 48.1163 8.25195ZM53.3763 20.4803C53.3763 24.1532 51.4792 26.2705 48.1163 26.2705C44.7533 26.2705 42.8562 24.1964 42.8562 20.4803V17.0668C42.8562 13.3939 44.7964 11.2766 48.1163 11.2766C51.4361 11.2766 53.3763 13.3939 53.3763 17.0668V20.4803ZM68.3373 13.61C66.4402 13.61 64.8449 14.3878 63.9826 15.6841L63.5946 16.289V13.9557H60.1885V33.9618H63.767V26.7458L64.1551 27.3075C64.9743 28.5174 66.5264 29.2087 68.3804 29.2087C71.4847 29.2087 74.5889 27.1779 74.5889 22.6841V20.1347C74.5458 16.8939 72.6057 13.61 68.3373 13.61ZM70.9673 22.5112C70.9673 24.931 69.5876 26.4001 67.3025 26.4001C65.1899 26.4001 63.7239 24.8445 63.7239 22.5544V20.3075C63.7239 18.0174 65.1899 16.4186 67.3025 16.4186C69.5445 16.4186 70.9242 17.8878 70.9242 20.3075L70.9673 22.5112ZM116.281 8.68405L109.081 28.8631H112.703L114.082 24.5421H122.361V24.5853L123.74 28.8631H127.362L120.119 8.68405H116.281ZM114.988 21.6902L118.265 11.4927L121.498 21.6902H114.988Z" fill="#2F3133"/>
<path d="M32.1634 14.3005C32.9394 11.924 32.6807 9.28817 31.4304 7.12768C29.5333 3.80052 25.6961 2.11533 21.9451 2.89311C20.3067 1.03508 17.8923 -0.00195312 15.3916 -0.00195312C11.5543 -0.00195312 8.19135 2.46101 6.98413 6.09064C4.52656 6.60916 2.41392 8.1215 1.16358 10.3252C-0.733484 13.6524 -0.302333 17.8005 2.24146 20.6524C1.46539 23.0721 1.76719 25.6647 3.01753 27.8252C4.9146 31.1524 8.75185 32.8808 12.5029 32.0598C14.1844 33.9178 16.5557 34.998 19.0564 34.998C22.8936 34.998 26.2566 32.5351 27.4638 28.9055C29.9214 28.3869 32.034 26.8746 33.2844 24.6709C35.1814 21.3437 34.7503 17.1524 32.1634 14.3005ZM19.0564 32.7079C17.5042 32.7079 16.0383 32.1894 14.8742 31.1956C14.9173 31.1524 15.0467 31.1092 15.0898 31.066L22.0313 27.0474C22.3762 26.8314 22.5918 26.4857 22.5918 26.0536V16.245L25.5236 17.9301C25.5667 17.9301 25.5667 17.9734 25.5667 18.0166V26.14C25.6099 29.7697 22.678 32.7079 19.0564 32.7079ZM5.00083 26.7018C4.22476 25.3622 3.96607 23.8067 4.22476 22.2943C4.26787 22.3376 4.3541 22.3808 4.44033 22.424L11.3819 26.4425C11.7268 26.6585 12.1579 26.6585 12.5029 26.4425L20.9965 21.5166V24.9301C20.9965 24.9734 20.9965 25.0166 20.9534 25.0166L13.9257 29.0783C10.8214 30.8931 6.81166 29.8129 5.00083 26.7018ZM3.18999 11.4919C3.96607 10.1524 5.17329 9.15854 6.59609 8.59681V16.8931C6.59609 17.282 6.81166 17.6709 7.15659 17.8869L15.6503 22.8129L12.7184 24.498C12.6753 24.498 12.6322 24.5413 12.6322 24.498L5.60444 20.4363C2.41392 18.6215 1.37916 14.603 3.18999 11.4919ZM27.3345 17.1092L18.8408 12.1832L21.7726 10.498C21.8157 10.498 21.8588 10.4548 21.8588 10.498L28.8866 14.5598C32.034 16.3746 33.0688 20.3931 31.2579 23.5042C30.4819 24.8437 29.2746 25.8376 27.8518 26.3561V18.103C27.895 17.7141 27.6794 17.3252 27.3345 17.1092ZM30.2232 12.7018C30.1801 12.6585 30.0938 12.6153 30.0076 12.5721L23.0661 8.5536C22.7211 8.33755 22.29 8.33755 21.9451 8.5536L13.4514 13.4795V10.0659C13.4514 10.0227 13.4514 9.97953 13.4945 9.97953L20.5223 5.9178C23.6697 4.10299 27.6363 5.18323 29.4471 8.33755C30.2232 9.63385 30.4819 11.1894 30.2232 12.7018ZM11.8561 18.7511L8.92431 17.0659C8.88119 17.0659 8.88119 17.0227 8.88119 16.9795V8.85607C8.88119 5.22644 11.813 2.28817 15.4347 2.28817C16.9868 2.28817 18.4527 2.80669 19.6169 3.80052C19.5737 3.84373 19.4875 3.88694 19.4013 3.93015L12.4597 7.94866C12.1148 8.16471 11.8993 8.51039 11.8993 8.94249V18.7511H11.8561ZM13.4514 15.2943L17.2455 13.0906L21.0397 15.2943V19.6585L17.2455 21.8622L13.4514 19.6585V15.2943Z" fill="#2F3133"/>
</g>
<defs>
<clipPath id="clip0_18_2040">
<rect width="141.892" height="35" fill="white"/>
</clipPath>
</defs>
</svg>
