<svg width="159" height="25" viewBox="0 0 159 25" fill="none" xmlns="http://www.w3.org/2000/svg">
<path d="M12.7766 16.7107H8.50057V11.2292H11.2792C11.8053 11.2292 12.2532 11.2162 12.7792 11.1874C13.1282 11.1741 13.4695 11.0807 13.7769 10.9145C14.0843 10.7483 14.3497 10.5137 14.5527 10.2286C14.7776 9.93111 14.9212 9.57989 14.9693 9.20964C15.0162 8.88567 15.0214 8.60873 14.9902 8.27953C14.9355 7.69353 14.664 7.14934 14.2292 6.75423C13.7944 6.35912 13.2278 6.14175 12.6412 6.14496H8.50057V23.9165H1.42505V0.522461H12.9875C13.4485 0.522461 13.8365 0.530299 14.2974 0.556426C17.3678 0.721025 19.8964 2.43233 21.1959 5.2253C21.8598 6.60648 22.1138 8.15009 21.9277 9.67209C21.7706 11.2841 21.1039 12.8035 20.0249 14.0082C18.9459 15.213 17.5111 16.04 15.9303 16.3684C14.8963 16.6021 13.8391 16.717 12.7792 16.7107" fill="#2F3133"/>
<path d="M39.0497 22.6068C38.956 21.2299 38.9039 20.0646 38.8753 18.6825C38.8388 16.8667 38.818 15.3383 38.8049 13.5224C38.8049 12.5928 38.6841 11.667 38.4456 10.7687C38.3025 10.1737 38.036 9.61557 37.6636 9.13075C37.2912 8.64592 36.8211 8.24525 36.2841 7.95481C35.646 7.59251 34.9554 7.33246 34.2372 7.18407C31.955 6.66955 29.5927 6.62245 27.2919 7.0456C26.6148 7.16317 26.0497 7.32777 25.4117 7.59426C24.7034 7.87495 24.0684 8.31408 23.5548 8.87821C23.0412 9.44235 22.6628 10.1166 22.4482 10.8497C22.2703 11.4059 22.216 11.9945 22.2893 12.574C22.2997 12.6838 22.3284 12.7778 22.3779 12.8797L27.9846 13.0182C27.9674 12.6787 28.0188 12.3392 28.1357 12.0202C28.2195 11.7738 28.3584 11.55 28.5416 11.3657C28.7249 11.1814 28.9476 11.0415 29.193 10.9568C29.9109 10.6805 30.7028 10.6667 31.4299 10.9176C31.6708 10.9924 31.8896 11.1258 32.0668 11.3058C32.244 11.4858 32.3741 11.707 32.4456 11.9496C32.5393 12.2631 32.4924 12.5767 32.3023 12.8458C32.146 13.0758 31.9221 13.2511 31.6617 13.3474C31.495 13.4127 31.3492 13.4571 31.1799 13.5042C30.4424 13.7059 29.6948 13.869 28.9404 13.9927C28.3102 14.0972 27.7789 14.1939 27.1539 14.3219C26.3494 14.4802 25.5554 14.6879 24.7763 14.9437C24.0572 15.1691 23.3984 15.555 22.8492 16.0724C22.1133 16.7282 21.6395 17.6296 21.5159 18.6093C21.4195 19.2913 21.443 19.8843 21.594 20.5558C21.7688 21.3922 22.1699 22.1642 22.7534 22.7868C23.3368 23.4095 24.08 23.8589 24.9013 24.0855C26.7141 24.6423 28.6641 24.5434 30.4117 23.806C31.2655 23.4727 32.0178 22.9216 32.594 22.207L32.1982 19.3331C31.9342 19.756 31.5469 20.0871 31.0888 20.2815C30.6461 20.4774 30.2424 20.5819 29.7607 20.6316C29.357 20.6708 29.0081 20.642 28.6174 20.5323C28.3142 20.4535 28.0401 20.2884 27.8284 20.0568C27.6426 19.8622 27.5161 19.6183 27.4638 19.354C27.4194 19.1525 27.4314 18.9426 27.4985 18.7476C27.5656 18.5525 27.6852 18.3799 27.844 18.2488C28.0505 18.0682 28.289 17.9281 28.5471 17.836C29.1637 17.6072 29.7892 17.4032 30.4221 17.2246C31.2268 16.9973 31.8909 16.7517 32.6539 16.399C32.7268 17.0104 32.7242 17.5329 32.6383 18.1417C32.5784 18.5884 32.4404 18.9568 32.1982 19.3331L32.594 22.207C32.7164 22.6146 32.8284 22.9542 32.969 23.3566C33.0471 23.5787 33.1513 23.7511 33.3075 23.9262H39.4794C39.2239 23.5325 39.0757 23.0784 39.0497 22.6094" fill="#2F3133"/>
<path d="M46.4338 8.97051C47.2069 8.28212 48.0786 7.71407 49.0198 7.28533C50.5558 6.54547 52.3137 6.41483 53.9417 6.91955C54.8176 7.16163 55.618 7.62274 56.2679 8.25972C56.9179 8.8967 57.3961 9.68872 57.6578 10.5616C57.9272 11.3906 58.0609 12.258 58.0536 13.1299V23.9151H51.439V14.2168C51.439 13.8928 51.3974 13.6159 51.3036 13.3076C51.2263 13.0398 51.0893 12.7931 50.9029 12.5863C50.7166 12.3794 50.4859 12.2178 50.2281 12.1136C49.6671 11.8712 49.0371 11.8438 48.4573 12.0364C47.8775 12.229 47.3882 12.6283 47.0823 13.1586C46.8199 13.5941 46.6846 14.0947 46.6917 14.6035V23.9151H40.2854V7.20433H46.2932L46.4338 8.97051Z" fill="#2F3133"/>
<path d="M76.4464 22.6068C76.3526 21.2299 76.3005 20.0646 76.2719 18.6825C76.2354 16.8667 76.2146 15.3383 76.2016 13.5224C76.2016 12.5928 76.0808 11.667 75.8422 10.7687C75.6991 10.1737 75.4327 9.61557 75.0602 9.13075C74.6878 8.64592 74.2178 8.24525 73.6807 7.95481C73.0426 7.59251 72.352 7.33246 71.6339 7.18407C69.3516 6.66955 66.9894 6.62245 64.6886 7.0456C64.0115 7.16317 63.4464 7.32777 62.8084 7.59426C62.1001 7.87495 61.465 8.31408 60.9514 8.87821C60.4379 9.44235 60.0594 10.1166 59.8448 10.8497C59.6669 11.4059 59.6127 11.9945 59.686 12.574C59.6964 12.6838 59.725 12.7778 59.7745 12.8797L65.3813 13.0182C65.364 12.6787 65.4154 12.3392 65.5323 12.0202C65.6162 11.7738 65.755 11.55 65.9383 11.3657C66.1215 11.1814 66.3443 11.0415 66.5896 10.9568C67.3075 10.6805 68.0995 10.6667 68.8266 10.9176C69.0675 10.9924 69.2862 11.1258 69.4634 11.3058C69.6406 11.4858 69.7707 11.707 69.8422 11.9496C69.936 12.2631 69.8891 12.5767 69.699 12.8458C69.5427 13.0758 69.3187 13.2511 69.0584 13.3474C68.8917 13.4127 68.7459 13.4571 68.5766 13.5042C67.839 13.7059 67.0915 13.869 66.337 13.9927C65.7068 14.0972 65.1755 14.1939 64.5505 14.3219C63.7461 14.4802 62.952 14.6879 62.1729 14.9437C61.4538 15.1691 60.795 15.555 60.2458 16.0724C59.5099 16.7282 59.0362 17.6296 58.9125 18.6093C58.8162 19.2913 58.8396 19.8843 58.9906 20.5558C59.1654 21.3922 59.5666 22.1642 60.15 22.7868C60.7334 23.4095 61.4766 23.8589 62.2979 24.0855C64.1107 24.6423 66.0608 24.5434 67.8083 23.806C68.6622 23.4727 69.4144 22.9216 69.9906 22.207L69.5948 19.3331C69.3309 19.756 68.9435 20.0871 68.4854 20.2815C68.0427 20.4774 67.6391 20.5819 67.1573 20.6316C66.7537 20.6708 66.4047 20.642 66.0141 20.5323C65.7108 20.4535 65.4368 20.2884 65.225 20.0568C65.0392 19.8622 64.9127 19.6183 64.8604 19.354C64.816 19.1525 64.828 18.9426 64.8951 18.7476C64.9622 18.5525 65.0818 18.3799 65.2406 18.2488C65.4471 18.0682 65.6857 17.9281 65.9438 17.836C66.5604 17.6072 67.1859 17.4032 67.8188 17.2246C68.6235 16.9973 69.2875 16.7517 70.0505 16.399C70.1235 17.0104 70.1209 17.5329 70.0349 18.1417C69.975 18.5884 69.837 18.9568 69.5948 19.3331L69.9906 22.207C70.113 22.6146 70.225 22.9542 70.3656 23.3566C70.4438 23.5787 70.5479 23.7511 70.7042 23.9262H76.8761C76.6205 23.5325 76.4723 23.0784 76.4464 22.6094" fill="#2F3133"/>
<path d="M85.6908 17.7734C86.1674 17.8544 86.5658 17.9563 87.0242 18.1078C87.2079 18.1655 87.3727 18.272 87.501 18.4159C87.6294 18.5599 87.7166 18.736 87.7533 18.9256C87.8006 19.13 87.7945 19.3432 87.7357 19.5446C87.6768 19.746 87.5672 19.9287 87.4174 20.0752C87.1218 20.3827 86.7322 20.5823 86.3106 20.6421C85.7221 20.7362 85.2012 20.6892 84.6439 20.4854C84.3843 20.3951 84.1433 20.2578 83.933 20.0804C83.6565 19.8524 83.4543 19.5467 83.3523 19.2025C83.2616 18.9146 83.2193 18.6135 83.2273 18.3116H77.1283V18.6669C77.1283 19.2417 77.2169 19.7303 77.4174 20.2711C77.7247 21.0811 78.1439 21.7081 78.7768 22.2986C79.5569 23.0445 80.5101 23.5833 81.5502 23.8662C83.6918 24.5044 85.9498 24.6473 88.1544 24.2842C89.1893 24.1346 90.1908 23.8076 91.1153 23.3175C91.5256 23.1057 91.9101 22.8471 92.2611 22.5468C93.0608 21.8929 93.6428 21.0099 93.9294 20.0156C94.216 19.0213 94.1937 17.963 93.8653 16.9818C93.6371 16.2395 93.2015 15.5785 92.6101 15.0771C91.8153 14.3718 90.8715 13.8564 89.8497 13.5696L89.183 13.3789C87.9448 13.0289 86.6852 12.7601 85.4122 12.5742C85.0528 12.5219 84.7507 12.4644 84.3965 12.3808C84.2415 12.3441 84.0905 12.2915 83.946 12.2241C83.8568 12.1839 83.7763 12.1265 83.7091 12.0552C83.6419 11.9838 83.5895 11.8999 83.5546 11.8082C83.5198 11.7165 83.5033 11.6188 83.5062 11.5207C83.509 11.4226 83.531 11.326 83.571 11.2365L83.5997 11.179C83.6931 11.0062 83.8204 10.8542 83.9739 10.7321C84.1274 10.61 84.304 10.5203 84.4929 10.4683C85.1908 10.2672 85.8314 10.2854 86.5163 10.5154C86.8318 10.6199 87.1043 10.8256 87.2916 11.1009C87.4789 11.3762 87.5707 11.7057 87.5528 12.0386H93.433C93.433 11.3502 93.3114 10.6673 93.0736 10.0216C92.8444 9.35806 92.426 8.77666 91.8705 8.34945C91.3979 7.96815 90.8679 7.66476 90.3002 7.45068C89.7504 7.23347 89.1797 7.07412 88.5971 6.97518C87.2167 6.72743 85.8115 6.64847 84.4122 6.74003C83.5684 6.78706 82.8575 6.89157 82.032 7.08491C80.9226 7.34618 80.0268 7.77727 79.1309 8.4827C78.3945 9.04657 77.8438 9.81933 77.5502 10.7009C77.1944 11.7655 77.2332 12.9232 77.6596 13.9615C77.8817 14.5479 78.2252 15.0804 78.6673 15.5239C79.1095 15.9675 79.6402 16.3121 80.2247 16.535C80.8419 16.7806 81.3809 16.9426 82.032 17.0758C83.3158 17.3423 84.4018 17.5487 85.6934 17.7708M105.67 6.88634C105.011 6.78184 104.449 6.73742 103.782 6.73742C103.115 6.73742 102.555 6.78184 101.894 6.88634C100.059 7.14905 98.3562 7.99624 97.0372 9.30308C95.5803 10.6644 94.6877 12.5263 94.5372 14.518C94.4171 15.7262 94.5276 16.9463 94.8627 18.1131C95.3835 19.9994 96.3679 21.4573 97.9174 22.6461C98.8806 23.4053 100.007 23.9295 101.206 24.1771C102.053 24.3674 102.917 24.4603 103.785 24.454C104.696 24.454 105.467 24.3757 106.36 24.1771C107.56 23.9294 108.686 23.4052 109.649 22.6461L106.071 18.7323C105.936 19.0338 105.743 19.3056 105.503 19.5322C105.263 19.7589 104.981 19.9358 104.673 20.053C104.365 20.1702 104.037 20.2253 103.707 20.2153C103.378 20.2052 103.054 20.13 102.753 19.9942C102.189 19.7493 101.74 19.298 101.496 18.7323C101.262 18.2206 101.103 17.6776 101.024 17.1202C100.847 15.9445 100.868 14.9256 101.094 13.7603C101.212 13.1568 101.415 12.663 101.751 12.1457C101.972 11.8083 102.274 11.5313 102.628 11.3397C102.983 11.1481 103.379 11.0477 103.782 11.0477C104.185 11.0477 104.581 11.1481 104.936 11.3397C105.29 11.5313 105.592 11.8083 105.813 12.1457C106.14 12.6332 106.363 13.1827 106.469 13.7603C106.696 14.9282 106.719 15.9471 106.542 17.1202C106.454 17.7081 106.313 18.1914 106.071 18.7323L109.649 22.6461C111.151 21.5272 112.227 19.9283 112.701 18.1131C113.042 16.8851 113.141 15.7878 113.027 14.518C112.877 12.5261 111.984 10.6641 110.527 9.30308C109.208 7.99578 107.505 7.14851 105.67 6.88634Z" fill="#2F3133"/>
<path d="M120.101 8.97051C120.874 8.28212 121.746 7.71407 122.687 7.28533C124.223 6.54547 125.981 6.41483 127.609 6.91955C128.485 7.16163 129.285 7.62274 129.935 8.25972C130.585 8.8967 131.063 9.68872 131.325 10.5616C131.594 11.3906 131.728 12.258 131.721 13.1299V23.9151H125.106V14.2168C125.106 13.8928 125.065 13.6159 124.971 13.3076C124.893 13.0398 124.756 12.7931 124.57 12.5863C124.384 12.3794 124.153 12.2178 123.895 12.1136C123.334 11.8712 122.704 11.8438 122.124 12.0364C121.545 12.229 121.055 12.6283 120.749 13.1586C120.487 13.5941 120.352 14.0947 120.359 14.6035V23.9151H113.953V7.20433H119.96L120.101 8.97051Z" fill="#2F3133"/>
<path d="M133.003 0.522461V4.9379H139.23V0.522461H133.003ZM133.003 7.20833V23.9191H139.23V7.20833H133.003ZM155.956 21.7505C154.77 23.0384 153.201 23.9079 151.482 24.23C150.274 24.4756 149.217 24.5278 147.99 24.3998C146.433 24.2601 144.948 23.6783 143.709 22.7225C142.682 21.9704 141.827 21.0065 141.201 19.8955C140.701 19.0451 140.367 18.107 140.217 17.1313C139.982 15.71 140.045 14.4611 140.417 13.0712C141.269 9.90984 143.636 7.67077 146.831 7.00454C148.654 6.6257 150.274 6.66489 152.079 7.13256C153.308 7.43566 154.436 8.05628 155.352 8.9327C155.939 9.46914 156.424 10.1073 156.784 10.8164C157.232 11.6484 157.437 12.5902 157.376 13.5336H151.68C151.627 13.1682 151.502 12.8169 151.313 12.5003C151.123 12.1837 150.873 11.9079 150.576 11.6891C150.199 11.3924 149.739 11.2205 149.26 11.1971C148.781 11.1737 148.306 11.2999 147.902 11.5584C147.337 11.8986 146.919 12.438 146.73 13.0712C146.242 14.5577 146.217 16.1577 146.657 17.6591C146.826 18.2951 147.172 18.8696 147.654 19.3155C147.921 19.5795 148.247 19.7762 148.605 19.8897C148.962 20.0033 149.342 20.0303 149.712 19.9687C150.178 19.9085 150.607 19.6778 150.915 19.3207C151.245 18.9623 151.462 18.5143 151.54 18.0327C151.602 17.68 151.636 17.3795 151.657 17.0216H157.659C157.731 17.8863 157.615 18.7562 157.321 19.5722C157.027 20.3882 156.562 21.1312 155.956 21.7505Z" fill="#2F3133"/>
</svg>
