<svg width="120" height="120" viewBox="0 0 120 120" fill="none" xmlns="http://www.w3.org/2000/svg">
<rect width="120" height="120" rx="16" fill="white"/>
<path d="M48.1089 73.8071C35.1448 61.9427 31.7383 49.655 31.0341 41.9662C30.6046 37.278 34.2927 33.683 38.9441 32.9566L44.3029 32.1197C49.5787 31.2958 54.5554 34.8102 55.5438 40.0577L56.3994 44.6006C56.7882 46.6652 55.6449 48.7125 53.6832 49.4644C51.4414 50.3236 50.3431 52.8333 51.488 54.9436C52.8582 57.469 54.9642 60.7421 57.7405 63.2828C60.5167 65.8235 63.9631 67.6319 66.5998 68.7735C68.803 69.7273 71.2058 68.4114 71.8635 66.1024C72.439 64.0819 74.3772 62.7621 76.468 62.9669L81.0688 63.4175C86.3832 63.938 90.3238 68.5845 89.9696 73.9125L89.6097 79.3244C89.2974 84.0218 86.0426 88.0132 81.3348 88C73.6138 87.9782 61.073 85.6715 48.1089 73.8071Z" stroke="#4BB9E1" stroke-width="4"/>
</svg>
