<svg width="151" height="23" viewBox="0 0 151 23" fill="none" xmlns="http://www.w3.org/2000/svg">
<g clip-path="url(#clip0_18_2048)">
<path d="M6.67731 6.23359C6.56717 5.79234 6.59471 5.3511 6.64977 5.1029C6.78744 4.41345 7.2555 3.66884 8.60462 3.66884C9.87114 3.66884 10.587 4.44102 10.587 5.62688C10.587 6.01297 10.587 6.95062 10.587 6.95062H15.9284V5.43383C15.9559 0.745581 11.7434 0.000976562 8.71475 0.000976562C4.91519 0.000976562 1.80396 1.26956 1.22576 4.77196C1.06057 5.73719 1.03303 6.5921 1.28083 7.66764C2.21695 12.0525 9.84361 13.3211 10.9449 16.1065C11.1652 16.6305 11.0826 17.2923 11 17.706C10.8348 18.423 10.3392 19.1676 8.90748 19.1676C7.55836 19.1676 6.7599 18.3955 6.7599 17.2096V15.1413H0.977966V16.7959C0.977966 21.5945 4.74999 23.0286 8.76982 23.0286C12.652 23.0286 15.8183 21.7048 16.3414 18.1197C16.5892 16.272 16.3965 15.0585 16.3139 14.6173C15.4328 10.0669 7.28303 8.74318 6.67731 6.23359ZM76.4185 6.26117C76.3359 5.8475 76.3634 5.37867 76.391 5.15805C76.5562 4.4686 76.9967 3.724 78.3458 3.724C79.5848 3.724 80.3007 4.49618 80.3007 5.65445C80.3007 6.04055 80.3007 6.9782 80.3007 6.9782H85.587V5.48899C85.587 0.855893 81.457 0.138866 78.4559 0.138866C74.6839 0.138866 71.6002 1.37987 71.022 4.85469C70.8844 5.79234 70.8293 6.64726 71.0771 7.7228C71.9857 12.0525 79.5297 13.3211 80.631 16.0789C80.8238 16.6029 80.7687 17.2648 80.6586 17.6509C80.4934 18.3679 80.0253 19.0849 78.5936 19.0849C77.272 19.0849 76.446 18.3127 76.446 17.1545V15.0861H70.7467V16.7132C70.7467 21.4566 74.4636 22.8907 78.4559 22.8907C82.283 22.8907 85.4493 21.5669 85.9449 18.0369C86.1927 16.1892 86 15.0034 85.9174 14.5621C85.0639 10.0945 77.0242 8.77076 76.4185 6.26117ZM125.097 17.9818L120.058 0.690425H112.101V21.953H117.36L117.057 4.11009L122.481 21.953H130.108V0.690425H124.822L125.097 17.9818ZM23.9405 0.690425L19.9482 22.1736H25.7302L28.7313 2.28995L31.6498 22.1736H37.4042L33.467 0.690425H23.9405ZM56.3194 0.690425L53.6211 17.4854L50.9229 0.690425H42.1674L41.6993 22.1736H47.0683L47.2059 2.28995L50.8954 22.1736H56.3194L60.0088 2.28995L60.1465 22.1736H65.5154L65.0473 0.690425H56.3194ZM106.154 0.690425H100.73V16.5753C100.73 16.8511 100.73 17.1545 100.675 17.4027C100.565 17.9266 100.124 18.9746 98.6101 18.9746C97.1233 18.9746 96.6828 17.9542 96.5727 17.4027C96.5176 17.182 96.5176 16.8511 96.5176 16.5753V0.690425H91.0936V16.0789C91.0936 16.465 91.1211 17.2923 91.1487 17.4854C91.5341 21.4842 94.6729 22.8079 98.6101 22.8079C102.547 22.8079 105.714 21.5118 106.099 17.4854C106.127 17.2648 106.182 16.465 106.154 16.0789V0.690425ZM143.379 10.0945V13.2384H145.581V16.3547C145.581 16.6305 145.581 16.9338 145.526 17.182C145.444 17.7612 144.893 18.754 143.324 18.754C141.782 18.754 141.231 17.7612 141.149 17.182C141.121 16.9338 141.094 16.6305 141.094 16.3547V6.53695C141.094 6.17844 141.121 5.81992 141.204 5.51656C141.314 4.99258 141.782 3.9722 143.324 3.9722C144.976 3.9722 145.361 5.04774 145.471 5.51656C145.526 5.81992 145.526 6.3439 145.526 6.3439V7.52975H150.923V6.81273C150.923 6.81273 150.95 6.06812 150.895 5.37867C150.482 1.37987 147.151 0.111288 143.351 0.111288C139.552 0.111288 136.303 1.40745 135.835 5.40625C135.78 5.76477 135.725 6.42664 135.725 6.84031V15.8583C135.725 16.2444 135.725 16.5477 135.807 17.2648C136.165 21.1808 139.552 22.5597 143.351 22.5597C147.178 22.5597 150.537 21.1808 150.895 17.2648C150.95 16.5477 150.978 16.2444 150.978 15.8583V10.0945H143.379Z" fill="#1C5B99"/>
</g>
<defs>
<clipPath id="clip0_18_2048">
<rect width="150" height="23" fill="white" transform="translate(0.977966)"/>
</clipPath>
</defs>
</svg>
