<svg width="126" height="31" viewBox="0 0 126 31" fill="none" xmlns="http://www.w3.org/2000/svg">
<g clip-path="url(#clip0_18_2044)">
<path d="M73.0116 30.9094C75.4145 30.9094 77.386 29.7853 78.7692 27.6942L79.0282 30.4769H83.7473V0.65625H78.6485V11.4259C77.3685 9.48956 75.4672 8.46979 73.2366 8.46979C68.3101 8.46979 64.8698 12.6368 64.8698 19.8455C64.8698 26.9499 68.2058 30.9094 73.0116 30.9094ZM104.389 29.0246V24.8588C102.798 25.9301 100.136 26.8807 97.6466 26.8807C93.9122 26.8807 92.495 25.1178 92.2876 21.5217H104.595V18.8081C104.595 11.3064 101.294 8.46979 96.1943 8.46979C89.9702 8.46979 87.0152 13.224 87.0152 19.7587C87.0152 27.2605 90.697 30.9094 97.2317 30.9094C100.482 30.9094 102.885 30.0443 104.389 29.0246ZM49.4151 14.9869C50.3657 13.8289 51.8531 12.8442 53.7028 12.8442C55.4997 12.8442 56.3132 13.6214 56.3132 15.2472V30.4769H61.412V14.7279C61.412 10.4413 59.7007 8.55653 55.5349 8.55653C52.492 8.55653 50.6939 9.68062 49.6565 10.7004H49.3987L49.2768 8.90231H44.2963V30.4769H49.3963V14.9881L49.4151 14.9869ZM40.1492 15.7652C40.1492 10.5269 37.4861 8.55653 32.0755 8.55653C28.722 8.55653 26.0249 9.97483 24.487 11.0802V15.5062C26.1116 14.1746 28.6012 12.6368 31.4882 12.6368C33.9263 12.6368 35.0492 13.5007 35.0492 15.8168V17.1824H34.2369C26.4234 17.1824 22.948 19.7072 22.948 24.2188C22.948 28.3846 25.6099 30.7875 29.5519 30.7875C32.5596 30.7875 33.8396 29.8029 34.8242 28.7655H35.0316C35.0668 29.3188 35.2391 30.0443 35.4126 30.4769H40.3907C40.2186 28.7247 40.1322 26.9652 40.1317 25.2045V15.7652H40.1492ZM120.086 30.4769H125.843L118.806 19.3614L124.892 8.90231H119.792L116.109 15.4195L111.995 8.90231H106.221L112.738 19.2407L105.962 30.4769H111.149L115.487 23.1814L120.086 30.4769ZM74.5166 12.4985C77.2653 12.4985 78.6309 14.6939 78.6309 19.6556C78.6309 24.6689 77.1774 26.8643 74.2916 26.8643C71.5077 26.8643 70.1246 24.7193 70.1246 19.8279C70.1422 14.7291 71.5945 12.4985 74.5166 12.4985ZM96.1076 12.4985C98.6324 12.4985 99.4095 14.6072 99.4095 17.3043V17.7368H92.2876C92.4083 14.2965 93.6531 12.4973 96.1088 12.4973L96.1076 12.4985ZM35.0492 25.3241C34.4092 26.2747 33.1996 27.0354 31.4015 27.0354C29.2576 27.0354 28.1863 25.7906 28.1863 23.9058C28.1863 21.4173 29.9492 20.5535 34.3225 20.5535H35.0492V25.3241Z" fill="#2F3133"/>
<path d="M15.3933 25.4208V30.4856H10.2077V21.9454L0.422577 0.665039H5.83321L13.4569 17.3131C14.9267 20.4943 15.3933 21.5996 15.3933 25.4208ZM25.1432 0.665039L18.7819 15.0825H13.5096L19.8709 0.665039H25.1432Z" fill="#2F3133"/>
</g>
<defs>
<clipPath id="clip0_18_2044">
<rect width="125.824" height="31" fill="white" transform="translate(0.0231628)"/>
</clipPath>
</defs>
</svg>
